<svg width="32" height="31" viewBox="0 0 32 31" fill="none" xmlns="http://www.w3.org/2000/svg">
<path d="M19.3788 4.08677C18.2658 2.98289 17.1984 1.61443 15.8938 0.738619C14.425 -0.264915 12.3267 0.0452685 10.6389 0.0452685C8.95114 0.0452685 7.41847 -0.000346674 5.81282 0.0452685C2.86608 0.127376 0.402856 2.29866 0.129165 5.28189C-0.144526 8.26512 0.101796 11.148 0.101796 14.0309C0.101796 17.4155 0.0653042 20.8002 0.101796 24.1848C0.129165 26.5386 1.37902 28.6733 3.5868 29.6039C4.78191 30.1057 5.99528 30.06 7.25425 30.06H24.4147C25.4273 30.06 26.4856 30.133 27.48 29.9232C30.1531 29.3667 31.8956 26.9491 31.9594 24.2943C31.9959 22.9623 31.9594 21.6304 31.9594 20.2984C31.9594 16.9685 32.0507 13.6203 31.9594 10.2996C31.8773 7.41668 29.7973 4.94434 26.8779 4.62503C25.1628 4.43345 23.3747 4.57942 21.6504 4.57942C20.8202 4.57942 20.0356 4.67065 19.3696 4.07765C18.2749 3.10148 16.6601 4.71626 17.7549 5.69243C19.2967 7.06088 21.0757 6.86017 22.9824 6.86017C24.5059 6.86017 26.6133 6.52262 27.9909 7.32545C29.4962 8.21038 29.6878 9.70656 29.6878 11.2575V22.0227C29.6878 23.0444 29.8429 24.2578 29.5692 25.2613C28.6843 28.4818 24.6701 27.7702 22.1339 27.7702H10.4199C8.03884 27.7702 4.12505 28.4909 2.78397 25.9456C2.2822 24.9876 2.38255 23.8838 2.38255 22.8437V7.12474C2.38255 6.00261 2.2822 4.8896 2.92994 3.89519C4.00645 2.22567 5.75808 2.32603 7.48233 2.32603H12.9653C13.686 2.32603 14.279 2.32603 14.8811 2.82779C15.392 3.25658 15.8482 3.78571 16.3225 4.26011L17.764 5.69243C18.804 6.73245 20.4188 5.11767 19.3788 4.07765V4.08677Z" fill="#7071EA"/>
</svg>
