<svg width="18" height="18" viewBox="0 0 18 18" fill="none" xmlns="http://www.w3.org/2000/svg">
<path d="M15.7288 9.01184C15.6926 11.8077 13.9734 14.3954 11.3043 15.3545C8.63511 16.3136 5.53163 15.4902 3.72202 13.2554C1.91241 11.0205 1.75859 7.94417 3.18819 5.54644C4.61778 3.14871 7.45886 1.84579 10.1914 2.37058C13.3944 2.98585 15.6835 5.7636 15.7288 9.01184C15.7469 10.4686 18.0089 10.4686 17.9908 9.01184C17.9365 5.24786 15.6292 1.90008 12.1096 0.560972C8.58987 -0.778138 4.43681 0.343819 2.06623 3.24824C-0.304359 6.15266 -0.71152 10.351 1.24286 13.6173C3.19723 16.8836 6.98836 18.5213 10.6981 17.8518C14.9325 17.0917 17.9455 13.2373 17.9998 9.00279C18.0179 7.54606 15.7559 7.54606 15.7378 9.00279L15.7288 9.01184Z" fill="#7071EA"/>
</svg>
