<svg width="29" height="32" viewBox="0 0 29 32" fill="none" xmlns="http://www.w3.org/2000/svg">
<path d="M20.6419 0.0233747H10.6527C9.453 0.0233747 8.22718 -0.0292184 7.02745 0.0233747C4.06288 0.181154 1.44606 2.10957 0.437585 4.93207C-0.0144896 6.1943 0.0115917 7.48284 0.0115917 8.80643V25.9956C0.0115917 27.1001 -0.0927333 28.2659 0.324567 29.309C1.33304 31.8422 4.39324 32.7188 6.64492 31.29C8.08808 30.3696 9.47908 29.3528 10.8962 28.3799C12.3132 27.4069 13.6521 26.0745 15.3561 27.1965C16.8862 28.2045 18.3902 29.2652 19.9029 30.3083C21.4156 31.3514 22.9979 32.4646 25.0235 31.7984C28.614 30.6063 27.962 26.4865 27.962 23.5062V10.9102C27.962 9.7794 27.9794 8.64865 27.962 7.50913C27.9272 5.06355 26.8492 2.80205 24.8496 1.3645C23.6064 0.479182 22.1546 0.0584368 20.6419 0.0233747C19.2422 -0.0116874 19.2422 2.17969 20.6419 2.21476C23.4934 2.28488 25.7277 4.52009 25.7886 7.40395C25.8059 8.15778 25.7886 8.90285 25.7886 9.65669V26.0044C25.7886 26.7933 25.9364 27.8539 25.606 28.599C25.1278 29.6509 23.8499 30.1242 22.8153 29.6333C22.3545 29.4142 21.9285 29.0636 21.5025 28.7743L16.9731 25.6801C15.2865 24.5318 13.4347 24.111 11.6004 25.2769C10.2528 26.1359 8.94876 27.0913 7.63601 27.9942C6.55798 28.7305 5.06266 30.2031 3.65427 29.7473C2.24588 29.2915 2.19372 28.0643 2.19372 26.8634C2.19372 20.4558 2.15025 14.0482 2.19372 7.64062C2.21111 5.58072 3.1935 3.69613 5.07135 2.76698C6.34064 2.13587 7.73164 2.24105 9.09656 2.24105H20.6419C22.0416 2.24105 22.0416 0.0496713 20.6419 0.0496713V0.0233747Z" fill="#5258F2"/>
</svg>
