<svg width="29" height="32" viewBox="0 0 29 32" fill="none" xmlns="http://www.w3.org/2000/svg">
<path d="M20.6425 0.0233754H10.6531C9.45329 0.0233754 8.22744 -0.0292193 7.02766 0.0233754C4.063 0.18116 1.4461 2.10963 0.437599 4.93222C-0.01449 6.19449 0.011592 7.48307 0.011592 8.8067V25.9964C0.011592 27.1009 -0.0927361 28.2668 0.324577 29.3099C1.33308 31.8432 4.39337 32.7198 6.64512 31.291C8.08833 30.3706 9.47937 29.3537 10.8965 28.3807C12.3136 27.4077 13.6525 26.0753 15.3565 27.1973C16.8867 28.2054 18.3907 29.2661 19.9035 30.3092C21.4163 31.3523 22.9986 32.4656 25.0243 31.7994C28.6149 30.6072 27.9628 26.4873 27.9628 23.5069V10.9105C27.9628 9.7797 27.9802 8.64892 27.9628 7.50936C27.9281 5.06371 26.85 2.80213 24.8504 1.36454C23.6071 0.479197 22.1552 0.0584386 20.6425 0.0233754C19.2428 -0.0116877 19.2428 2.17976 20.6425 2.21482C23.4941 2.28495 25.7285 4.52023 25.7893 7.40417C25.8067 8.15803 25.7893 8.90312 25.7893 9.65698V26.0052C25.7893 26.7941 25.9371 27.8548 25.6068 28.5999C25.1286 29.6518 23.8506 30.1251 22.816 29.6342C22.3552 29.4151 21.9292 29.0644 21.5032 28.7752L16.9736 25.6809C15.287 24.5325 13.4351 24.1118 11.6007 25.2776C10.2531 26.1367 8.94904 27.0921 7.63624 27.995C6.55818 28.7313 5.06281 30.204 3.65438 29.7482C2.24595 29.2924 2.19379 28.0651 2.19379 26.8642C2.19379 20.4564 2.15032 14.0486 2.19379 7.64085C2.21118 5.58089 3.1936 3.69624 5.07151 2.76707C6.34083 2.13593 7.73188 2.24112 9.09684 2.24112H20.6425C22.0422 2.24112 22.0422 0.0496728 20.6425 0.0496728V0.0233754Z" fill="#5258F2"/>
</svg>
