<svg width="16" height="17" viewBox="0 0 16 17" fill="none" xmlns="http://www.w3.org/2000/svg">
<g clip-path="url(#clip0_8032_3342)">
<g clip-path="url(#clip1_8032_3342)">
<path d="M14.7739 6.8891C14.7318 3.30921 11.7162 0.331584 8.09424 0.508473C4.50593 0.685362 1.65465 3.9199 2.0337 7.52084C2.25691 9.64351 3.51619 11.5008 5.38616 12.5243L5.12504 12.0694V13.6783C5.12504 13.9646 5.3651 14.2047 5.65149 14.2047H11.1224C11.4088 14.2047 11.6489 13.9646 11.6489 13.6783V12.0694L11.3877 12.5243C13.4641 11.3913 14.7402 9.24761 14.7739 6.8891C14.7823 6.21103 13.7294 6.21103 13.721 6.8891C13.6957 8.88963 12.6091 10.6585 10.8571 11.6146C10.697 11.703 10.5959 11.8883 10.5959 12.0694V13.6783L11.1224 13.1518H5.65149L6.17794 13.6783V12.0694C6.17794 11.8883 6.07687 11.703 5.91682 11.6146C3.11609 10.0857 2.17689 6.43003 4.04265 3.79355C5.76099 1.35922 9.29455 0.841192 11.6489 2.66062C12.9587 3.67562 13.6999 5.23814 13.721 6.88489C13.7294 7.56296 14.7823 7.56296 14.7739 6.88489V6.8891Z" fill="white"/>
<path d="M11.5562 15.8346C11.2782 15.0975 10.6549 14.5921 9.8547 14.5627C9.61885 14.5542 9.38299 14.5627 9.14714 14.5627C8.42274 14.5627 7.69834 14.5458 6.97815 14.5627C6.15688 14.5795 5.50829 15.0765 5.22611 15.8346C5.12503 16.0999 5.33561 16.4116 5.59252 16.4832C5.88734 16.5632 6.14004 16.3821 6.24111 16.1168C6.38852 15.7167 6.75493 15.6156 7.13819 15.6156H9.65254C10.0316 15.6156 10.398 15.7167 10.5496 16.1168C10.6507 16.3821 10.9034 16.5632 11.1982 16.4832C11.4551 16.4116 11.6657 16.1041 11.5646 15.8346H11.5562Z" fill="white"/>
<path d="M8.14898 4.45035L7.5046 5.52853C7.23506 5.97918 6.78862 6.50142 7.07923 7.04893C7.40773 7.66383 8.20373 7.52906 8.78494 7.52906C8.93235 7.52906 8.83127 7.55012 8.7723 7.46167C8.70492 7.35638 8.82705 7.17528 8.73861 7.32269C8.6249 7.50379 8.53224 7.69752 8.42695 7.88284C8.1911 8.304 7.95946 8.72937 7.72361 9.15054C7.3951 9.74438 8.30481 10.275 8.63332 9.6812C8.83127 9.32321 9.02921 8.96944 9.22716 8.61145C9.42511 8.25346 9.82521 7.74385 9.79573 7.29742C9.76204 6.79202 9.31139 6.48878 8.83548 6.47615C8.58699 6.47194 8.3385 6.47615 8.09002 6.47615C8.05633 6.47615 7.92576 6.45509 7.90049 6.47615C7.95103 6.42982 8.02684 6.61513 8.03106 6.63198C8.03106 6.66567 7.97209 6.75412 8.01842 6.72464C8.05633 6.69515 8.09002 6.60671 8.11529 6.56459L8.30481 6.24872L9.06291 4.98102C9.41247 4.39981 8.50276 3.86915 8.15319 4.45035H8.14898Z" fill="white"/>
</g>
</g>
<defs>
<clipPath id="clip0_8032_3342">
<rect width="16" height="16" fill="white" transform="translate(0 0.5)"/>
</clipPath>
<clipPath id="clip1_8032_3342">
<rect width="12.7739" height="16" fill="white" transform="translate(2 0.5)"/>
</clipPath>
</defs>
</svg>
