<svg width="16" height="16" viewBox="0 0 16 16" fill="none" xmlns="http://www.w3.org/2000/svg">
<path d="M7.49505 1.53814C7.85646 1.53814 8.21786 1.57776 8.57927 1.65205C11.421 2.24633 13.2479 5.03948 12.6538 7.88214C12.1488 10.3088 9.98529 12.0719 7.5099 12.0719C7.14849 12.0719 6.78214 12.0322 6.42568 11.958C5.04937 11.6707 3.87108 10.8635 3.09876 9.68976C2.33139 8.5111 2.06405 7.10957 2.35119 5.73281C2.85617 3.30119 5.01966 1.53814 7.49505 1.53814ZM7.49505 0.300049C4.48003 0.300049 1.7769 2.40481 1.13825 5.47033C0.40554 8.98652 2.65814 12.4284 6.16824 13.1614C6.61876 13.2555 7.06433 13.3 7.50495 13.3C10.515 13.3 13.2181 11.1953 13.8617 8.12976C14.5945 4.61357 12.3419 1.17167 8.83176 0.438716C8.38124 0.34462 7.93567 0.300049 7.49505 0.300049Z" fill="#C6C7FD"/>
<path d="M4.57883 6.88375C4.54197 6.88375 4.50051 6.88375 4.45905 6.86993C4.14577 6.80543 3.94767 6.50137 4.01217 6.1881C4.29319 4.83826 5.2883 3.7418 6.60589 3.32717C6.90535 3.23043 7.23244 3.40088 7.32919 3.70494C7.42593 4.009 7.25547 4.33149 6.95142 4.42824C6.03002 4.71848 5.33437 5.48323 5.14088 6.42766C5.08559 6.69947 4.84603 6.88375 4.57883 6.88375Z" fill="#C6C7FD"/>
<path d="M14.2408 15.2146C14.0543 15.2444 13.8577 15.1826 13.7216 15.0317L10.8128 11.9353C10.5978 11.6991 10.6145 11.3372 10.8507 11.1221C11.0869 10.907 11.4488 10.9237 11.6639 11.1599L14.5727 14.2563C14.7877 14.4925 14.771 14.8545 14.5348 15.0695C14.4495 15.1485 14.3447 15.1933 14.24 15.21L14.2408 15.2146Z" fill="#C6C7FD"/>
</svg>
