<svg width="16" height="17" viewBox="0 0 16 17" fill="none" xmlns="http://www.w3.org/2000/svg">
<g clip-path="url(#clip0_8032_3336)">
<path d="M8.35721 2.70732H5.38798C4.94551 2.70732 4.50303 2.6918 4.06832 2.76942C3.20666 2.92856 2.4304 3.42537 1.90642 4.12401C1.19225 5.07494 1.20001 6.13843 1.20001 7.26014V10.9358C1.20001 12.0303 1.18449 13.0821 1.8676 14.0214C2.65551 15.1043 3.83156 15.4886 5.11628 15.4886C7.14235 15.4886 9.17229 15.5235 11.1983 15.4886C13.1196 15.4575 14.6993 13.971 14.7537 12.0303C14.7847 11.025 14.7537 10.0159 14.7537 9.01062C14.7537 8.38573 13.7833 8.38573 13.7833 9.01062V11.7276C13.7833 13.1248 12.9178 14.4057 11.4273 14.5144C10.7365 14.5648 10.0301 14.5221 9.3353 14.5221H5.86927C5.05806 14.5221 4.20417 14.6114 3.4706 14.1922C2.73702 13.773 2.2635 13.0511 2.17811 12.2321C2.15094 11.9643 2.16647 11.6849 2.16647 11.4171V8.15284C2.16647 7.40375 2.07719 6.5809 2.19752 5.83568C2.34113 4.94298 2.97378 4.16283 3.81992 3.84456C4.29344 3.66601 4.77861 3.68154 5.27542 3.68154H8.35332C8.97822 3.68154 8.97822 2.7112 8.35332 2.7112L8.35721 2.70732Z" fill="#5258F2"/>
<path d="M9.54491 10.7339C9.54491 9.62384 9.54491 8.51377 9.54491 7.40371C9.54491 6.62744 9.82437 5.90939 10.4803 5.45139C11.0586 5.04385 11.6952 5.05161 12.3628 5.05161H14.3112C14.7304 5.05161 14.9516 4.51987 14.6528 4.22489C13.795 3.36711 12.9333 2.50545 12.0755 1.64768C11.6331 1.2052 10.9461 1.8922 11.3885 2.33467C12.2463 3.19245 13.108 4.05411 13.9658 4.91189L14.3073 4.08516H12.4753C11.7068 4.08516 10.981 4.08516 10.2746 4.44613C9.26934 4.96234 8.62503 6.01807 8.57458 7.13978C8.54741 7.68705 8.57458 8.2382 8.57458 8.78158V10.7378C8.57458 11.3627 9.54491 11.3627 9.54491 10.7378V10.7339Z" fill="#5258F2"/>
</g>
<defs>
<clipPath id="clip0_8032_3336">
<rect width="13.5925" height="14" fill="white" transform="translate(1.20001 1.5)"/>
</clipPath>
</defs>
</svg>
