<svg width="28" height="26" viewBox="0 0 28 26" fill="none" xmlns="http://www.w3.org/2000/svg">
<path d="M14.5406 0.00257478H8.5083C7.60937 0.00257478 6.71045 -0.0289664 5.8273 0.12874C4.07676 0.452037 2.4997 1.46136 1.43518 2.88071C-0.015711 4.81261 5.9624e-05 6.97318 5.9624e-05 9.25203V16.7194C5.9624e-05 18.9431 -0.0314816 21.08 1.35633 22.9882C2.95705 25.1882 5.34629 25.9689 7.95633 25.9689C12.0725 25.9689 16.1965 26.0398 20.3126 25.9689C24.2158 25.9058 27.4251 22.8857 27.5355 18.9431C27.5986 16.9008 27.5355 14.8506 27.5355 12.8083C27.5355 11.5388 25.5642 11.5388 25.5642 12.8083V18.328C25.5642 21.1667 23.8058 23.7689 20.7778 23.9897C19.3742 24.0922 17.9391 24.0054 16.5276 24.0054H9.48607C7.83805 24.0054 6.10328 24.1868 4.61296 23.3352C3.12264 22.4836 2.16063 21.0169 1.98715 19.3531C1.93196 18.809 1.9635 18.2413 1.9635 17.6972V11.0656C1.9635 9.54379 1.78214 7.8721 2.02658 6.35813C2.31834 4.54451 3.60364 2.95956 5.32264 2.31297C6.28464 1.95024 7.27031 1.98179 8.27962 1.98179H14.5327C15.8022 1.98179 15.8022 0.0104601 14.5327 0.0104601L14.5406 0.00257478Z" fill="#5258F2"/>
</svg>
